<svg width="584" height="145" viewBox="0 0 584 145" fill="none" xmlns="http://www.w3.org/2000/svg">
<path d="M240.638 104H223.125L218.222 89.2897H185.649L180.746 104H163.35L191.954 22.2762H211.918L240.638 104ZM201.994 40.8392L190.786 74.2292H213.202L201.994 40.8392ZM290.641 52.514V45.6259H305.701V104H290.641V97.1119C286.126 102.794 279.783 105.634 271.611 105.634C263.827 105.634 257.134 102.677 251.53 96.7616C246.004 90.7685 243.241 83.4523 243.241 74.8129C243.241 66.2514 246.004 58.9741 251.53 52.981C257.134 46.9879 263.827 43.9914 271.611 43.9914C279.783 43.9914 286.126 46.8323 290.641 52.514ZM262.854 86.7213C265.89 89.7567 269.743 91.2744 274.413 91.2744C279.082 91.2744 282.935 89.7567 285.971 86.7213C289.084 83.608 290.641 79.6385 290.641 74.8129C290.641 69.9873 289.084 66.0568 285.971 63.0214C282.935 59.9081 279.082 58.3514 274.413 58.3514C269.743 58.3514 265.89 59.9081 262.854 63.0214C259.819 66.0568 258.301 69.9873 258.301 74.8129C258.301 79.6385 259.819 83.608 262.854 86.7213ZM364.072 52.8643V45.6259H378.783V101.198C378.783 110.149 375.786 117.037 369.793 121.862C363.878 126.61 356.717 128.984 348.311 128.984C335.08 128.984 325.857 124.236 320.642 114.741L333.484 107.386C336.364 112.834 341.462 115.558 348.778 115.558C353.526 115.558 357.262 114.313 359.986 111.822C362.71 109.332 364.072 105.79 364.072 101.198V94.8936C359.636 100.809 353.409 103.767 345.393 103.767C337.142 103.767 330.215 100.887 324.612 95.1271C319.085 89.2119 316.322 82.1292 316.322 73.8789C316.322 65.6287 319.124 58.5849 324.728 52.7475C330.332 46.9101 337.22 43.9914 345.393 43.9914C353.409 43.9914 359.636 46.949 364.072 52.8643ZM359.403 85.437C362.516 82.4016 364.072 78.5489 364.072 73.8789C364.072 69.209 362.516 65.4342 359.403 62.5544C356.367 59.5189 352.475 58.0012 347.728 58.0012C343.058 58.0012 339.127 59.5189 335.936 62.5544C332.901 65.4342 331.383 69.209 331.383 73.8789C331.383 78.5489 332.901 82.4016 335.936 85.437C339.049 88.3946 342.98 89.8735 347.728 89.8735C352.475 89.8735 356.367 88.3946 359.403 85.437ZM436.804 52.514V45.6259H451.864V104H436.804V97.1119C432.29 102.794 425.946 105.634 417.774 105.634C409.991 105.634 403.297 102.677 397.693 96.7616C392.167 90.7685 389.404 83.4523 389.404 74.8129C389.404 66.2514 392.167 58.9741 397.693 52.981C403.297 46.9879 409.991 43.9914 417.774 43.9914C425.946 43.9914 432.29 46.8323 436.804 52.514ZM409.018 86.7213C412.053 89.7567 415.906 91.2744 420.576 91.2744C425.246 91.2744 429.098 89.7567 432.134 86.7213C435.247 83.608 436.804 79.6385 436.804 74.8129C436.804 69.9873 435.247 66.0568 432.134 63.0214C429.098 59.9081 425.246 58.3514 420.576 58.3514C415.906 58.3514 412.053 59.9081 409.018 63.0214C405.982 66.0568 404.465 69.9873 404.465 74.8129C404.465 79.6385 405.982 83.608 409.018 86.7213ZM497.977 43.9914C504.437 43.9914 509.691 46.1318 513.738 50.4125C517.941 54.7711 520.043 60.6864 520.043 68.1583V104H504.982V70.0263C504.982 66.2125 503.931 63.2549 501.83 61.1534C499.806 59.0519 497.004 58.0012 493.424 58.0012C489.455 58.0012 486.302 59.2465 483.967 61.7371C481.71 64.1499 480.582 67.7302 480.582 72.478V104H465.521V22.2762H480.582V52.1638C484.162 46.7155 489.961 43.9914 497.977 43.9914ZM540.374 38.621C537.884 38.621 535.704 37.7259 533.836 35.9358C532.046 34.0678 531.151 31.8885 531.151 29.3978C531.151 26.9072 532.046 24.7279 533.836 22.8599C535.704 20.992 537.884 20.058 540.374 20.058C542.943 20.058 545.122 20.992 546.912 22.8599C548.78 24.7279 549.714 26.9072 549.714 29.3978C549.714 31.8885 548.78 34.0678 546.912 35.9358C545.122 37.7259 542.943 38.621 540.374 38.621ZM547.963 104H532.902V45.6259H547.963V104ZM569.219 38.621C566.729 38.621 564.549 37.7259 562.681 35.9358C560.891 34.0678 559.996 31.8885 559.996 29.3978C559.996 26.9072 560.891 24.7279 562.681 22.8599C564.549 20.992 566.729 20.058 569.219 20.058C571.788 20.058 573.967 20.992 575.757 22.8599C577.625 24.7279 578.559 26.9072 578.559 29.3978C578.559 31.8885 577.625 34.0678 575.757 35.9358C573.967 37.7259 571.788 38.621 569.219 38.621ZM576.808 104H561.747V45.6259H576.808V104Z" fill="#062F5A"/>
<path d="M40.7621 37.8483C46.5827 43.6711 53.8368 48.6621 62.8034 48.6621C71.7699 48.6621 76.1127 45.3348 84.8447 37.8483L100.163 22.5305C101.126 21.5668 101.138 20.0082 100.19 19.0294L90.7862 9.32369C89.8103 8.31647 88.1963 8.311 87.2136 9.31159L74.449 22.3084C71.5376 24.9549 67.946 28.2822 63.2193 28.2822C59.459 28.2822 54.901 25.3708 52.4055 22.8776L38.7789 9.25103C37.8044 8.27648 36.2243 8.27648 35.2498 9.25103L25.4719 19.0289C24.4973 20.0035 24.4973 21.5836 25.4719 22.5581L40.7621 37.8483Z" fill="#FDC332"/>
<path d="M100.162 22.5305L84.8445 37.8483C69.2042 40.8429 59.1611 31.055 56.0945 25.7868C58.3332 27.1983 60.9247 28.2822 63.2191 28.2822C67.9458 28.2822 71.5374 24.9549 74.4488 22.3084L87.2134 9.31159C88.1961 8.311 89.8101 8.31647 90.786 9.32369L100.19 19.0294C101.138 20.0082 101.126 21.5668 100.162 22.5305Z" fill="url(#paint0_linear)"/>
<circle cx="62.8032" cy="10.3979" r="10.3979" fill="#FDC332"/>
<path d="M84.8446 100.652C79.024 94.8289 71.7699 89.8379 62.8033 89.8379C53.8367 89.8379 49.494 93.1652 40.762 100.652L25.4442 115.97C24.4805 116.933 24.4682 118.492 25.4165 119.471L34.8205 129.176C35.7964 130.184 37.4104 130.189 38.3931 129.188L51.1577 116.192C54.0691 113.545 57.6607 110.218 62.3874 110.218C66.1477 110.218 70.7057 113.129 73.2012 115.622L86.8278 129.249C87.8023 130.224 89.3824 130.224 90.3569 129.249L100.135 119.471C101.109 118.497 101.109 116.916 100.135 115.942L84.8446 100.652Z" fill="#FD6A65"/>
<path d="M25.4444 115.97L40.7622 100.652C56.4025 97.6571 66.4456 107.445 69.5122 112.713C67.2735 111.302 64.682 110.218 62.3876 110.218C57.6609 110.218 54.0693 113.545 51.1579 116.192L38.3933 129.188C37.4106 130.189 35.7966 130.184 34.8207 129.176L25.4168 119.471C24.4684 118.492 24.4807 116.933 25.4444 115.97Z" fill="url(#paint1_linear)"/>
<circle cx="62.8035" cy="128.102" r="10.3979" transform="rotate(180 62.8035 128.102)" fill="#FD6A65"/>
<path d="M37.8484 91.9152C43.6713 86.0946 48.6622 78.8405 48.6622 69.8739C48.6622 60.9073 45.3349 56.5646 37.8484 47.8326L22.5306 32.5147C21.5669 31.5511 20.0083 31.5387 19.0295 32.4871L9.32381 41.891C8.31659 42.867 8.31112 44.481 9.31171 45.4637L22.3086 58.2282C24.955 61.1396 28.2824 64.7313 28.2824 69.458C28.2824 73.2182 25.371 77.7763 22.8777 80.2718L9.25115 93.8983C8.2766 94.8729 8.2766 96.4529 9.25115 97.4275L19.0291 107.205C20.0036 108.18 21.5837 108.18 22.5582 107.205L37.8484 91.9152Z" fill="#04D5C9"/>
<path d="M22.5306 32.5148L37.8484 47.8327C40.843 63.4729 31.0551 73.5161 25.7869 76.5826C27.1984 74.3439 28.2824 71.7525 28.2824 69.458C28.2824 64.7314 24.955 61.1397 22.3086 58.2283L9.31171 45.4638C8.31112 44.4811 8.31659 42.867 9.32381 41.8911L19.0295 32.4872C20.0083 31.5388 21.5669 31.5511 22.5306 32.5148Z" fill="url(#paint2_linear)"/>
<circle cx="10.3979" cy="69.874" r="10.3979" transform="rotate(-90 10.3979 69.874)" fill="#04D5C9"/>
<path d="M88.1743 47.8326C82.3514 53.6532 77.3605 60.9073 77.3605 69.8739C77.3605 78.8405 80.6878 83.1832 88.1743 91.9152L103.492 107.233C104.456 108.197 106.014 108.209 106.993 107.261L116.699 97.8568C117.706 96.8808 117.712 95.2668 116.711 94.2841L103.714 81.5196C101.068 78.6082 97.7403 75.0165 97.7403 70.2898C97.7403 66.5296 100.652 61.9715 103.145 59.476L116.772 45.8495C117.746 44.8749 117.746 43.2949 116.772 42.3203L106.994 32.5424C106.019 31.5679 104.439 31.5679 103.464 32.5424L88.1743 47.8326Z" fill="#0085FF"/>
<path d="M103.492 107.233L88.1743 91.9153C85.1797 76.275 94.9676 66.2319 100.236 63.1653C98.8243 65.404 97.7403 67.9955 97.7403 70.2899C97.7403 75.0166 101.068 78.6082 103.714 81.5196L116.711 94.2842C117.712 95.2669 117.706 96.8809 116.699 97.8568L106.993 107.261C106.014 108.209 104.456 108.197 103.492 107.233Z" fill="url(#paint3_linear)"/>
<circle cx="115.625" cy="69.874" r="10.3979" transform="rotate(90 115.625 69.874)" fill="#0085FF"/>
<defs>
<linearGradient id="paint0_linear" x1="77.1523" y1="7.48645" x2="77.1523" y2="48.6621" gradientUnits="userSpaceOnUse">
<stop stop-color="#DA7D00"/>
<stop offset="1" stop-color="#EE9113" stop-opacity="0"/>
</linearGradient>
<linearGradient id="paint1_linear" x1="48.4544" y1="131.014" x2="48.4544" y2="89.8379" gradientUnits="userSpaceOnUse">
<stop stop-color="#DF342C"/>
<stop offset="1" stop-color="#E93E36" stop-opacity="0"/>
</linearGradient>
<linearGradient id="paint2_linear" x1="7.48657" y1="55.5249" x2="48.6622" y2="55.5249" gradientUnits="userSpaceOnUse">
<stop stop-color="#00A59C"/>
<stop offset="1" stop-color="#02B9B0" stop-opacity="0"/>
</linearGradient>
<linearGradient id="paint3_linear" x1="118.536" y1="84.2231" x2="77.3605" y2="84.2231" gradientUnits="userSpaceOnUse">
<stop stop-color="#0053B9"/>
<stop offset="1" stop-color="#005DC3" stop-opacity="0"/>
</linearGradient>
</defs>
</svg>
